<svg width="23" height="23" viewBox="0 0 23 23" fill="none" xmlns="http://www.w3.org/2000/svg">
	<path
		d="M18.2305 3.01374V19.7663C18.2305 21.4307 16.8812 22.78 15.2168 22.78H3.01374C1.3493 22.78 0 21.4305 0 19.7661V8.48205L7.88457 0H15.2168C16.8812 0 18.2305 1.3493 18.2305 3.01374Z"
		fill="#FFB13B" />
	<path fill-rule="evenodd" clip-rule="evenodd"
		d="M0 8.48205V19.7661C0 21.4305 1.3493 22.78 3.01374 22.78H15.2168C16.8812 22.78 18.2305 21.4307 18.2305 19.7663V3.01374C18.2305 1.3493 16.8812 0 15.2168 0H7.88457L0 8.48205ZM7.13114 3.02378L2.66709 7.8261L6.35004 7.96142C6.77671 7.9771 7.13114 7.63545 7.13114 7.20849V3.02378ZM1.50687 9.29136V19.7661C1.50687 20.5984 2.18164 21.2731 3.01374 21.2731H15.2168C16.049 21.2731 16.7236 20.5985 16.7236 19.7663V3.01374C16.7236 2.18152 16.049 1.50687 15.2168 1.50687H8.63801V7.20849C8.63801 8.48937 7.57472 9.5143 6.29471 9.46727L1.50687 9.29136Z"
		fill="black" />
	<rect x="7.09082" y="10.3164" width="15.8936" height="8.89715" rx="1.44782" fill="black" />
	<path
		d="M10.3006 11.8207C10.6984 11.8207 11.0439 11.8752 11.3379 11.986C11.6303 12.096 11.8971 12.2636 12.1365 12.489L11.5555 13.1574C11.1928 12.8673 10.8052 12.7214 10.3926 12.7214C10.1727 12.7214 9.99957 12.7659 9.87244 12.8532C9.81052 12.8946 9.76033 12.9511 9.72671 13.0176C9.6931 13.084 9.67721 13.1579 9.68059 13.2323C9.68059 13.3477 9.70866 13.4413 9.76482 13.5138C9.82097 13.5864 9.9208 13.6558 10.0635 13.7205C10.2062 13.7852 10.4207 13.8632 10.7062 13.9537C11.2466 14.1237 11.6444 14.3327 11.8994 14.5807C12.1544 14.828 12.2816 15.1797 12.2816 15.6352C12.2816 15.9612 12.1981 16.2474 12.0297 16.4954C11.8612 16.7434 11.6186 16.936 11.3028 17.0733C10.9861 17.2113 10.6118 17.28 10.1782 17.28C9.74454 17.28 9.36083 17.2121 9.02703 17.0772C8.70888 16.9522 8.41687 16.7689 8.16602 16.5367L8.80086 15.8535C9.00519 16.0236 9.21576 16.1507 9.43258 16.2357C9.64861 16.3215 9.88492 16.3636 10.1399 16.3636C10.3997 16.3636 10.6056 16.3074 10.7561 16.1951C10.8293 16.1414 10.8881 16.0704 10.9274 15.9885C10.9667 15.9067 10.9853 15.8164 10.9815 15.7256C10.9856 15.6109 10.9563 15.4973 10.8972 15.3989C10.8411 15.3115 10.7444 15.2327 10.6063 15.1625C10.4139 15.0711 10.2144 14.9955 10.0097 14.9364C9.42322 14.7617 9.00597 14.5464 8.75874 14.2914C8.51151 14.0356 8.38751 13.7127 8.38751 13.3227C8.38751 13.0225 8.4694 12.7581 8.6324 12.5304C8.8056 12.2948 9.04152 12.1127 9.31325 12.0047C9.62667 11.8777 9.96247 11.8151 10.3006 11.8207ZM16.9415 11.9486L15.4643 17.1521H13.9045L12.3736 11.9486H13.6971L14.7071 16.1912L15.6562 11.9486H16.9415ZM19.6267 11.8207C20.3099 11.8207 20.8987 12.0336 21.3939 12.4586L20.7591 13.1122C20.5986 12.9882 20.4223 12.8859 20.235 12.808C20.0574 12.7425 19.869 12.7108 19.6797 12.7144C19.2874 12.7144 18.9739 12.8657 18.7392 13.1683C18.5044 13.4717 18.3874 13.9311 18.3874 14.5464C18.3874 15.2125 18.4763 15.6843 18.6549 15.9619C18.8335 16.2396 19.1112 16.3792 19.4894 16.3792C19.7546 16.3792 19.994 16.3215 20.2077 16.2061V15.0268H19.5191L19.3966 14.1557H21.4244V16.7317C21.1421 16.91 20.8355 17.0466 20.5142 17.1373C20.1828 17.2324 19.8513 17.28 19.5191 17.28C18.7134 17.28 18.1067 17.0483 17.6988 16.5859C17.2909 16.1226 17.0865 15.4425 17.0865 14.5464C17.0865 13.9755 17.1973 13.4857 17.4196 13.0747C17.6251 12.6808 17.9415 12.3557 18.3297 12.1396C18.7275 11.9237 19.1741 11.8139 19.6267 11.8207Z"
		fill="white" />
</svg>